<?xml version="1.0" encoding="utf-8"?>
<!-- Generator: Adobe Illustrator 26.0.1, SVG Export Plug-In . SVG Version: 6.00 Build 0)  -->
<svg version="1.1" id="Layer_1" xmlns="http://www.w3.org/2000/svg" xmlns:xlink="http://www.w3.org/1999/xlink" x="0px" y="0px"
	 viewBox="0 0 1396 1396" style="enable-background:new 0 0 1396 1396;" xml:space="preserve">
<style type="text/css">
	.st0{font-family:'Raleway';}
	.st1{font-size:153.8625px;}
	.st2{font-size:154.1264px;}
	.st3{font-size:154.1324px;}
	.st4{font-size:154.1258px;}
	.st5{font-size:154.1231px;}
	.st6{font-size:153.7698px;}
	.st7{font-size:154.4265px;}
	.st8{font-size:154.0168px;}
	.st9{font-size:154.4096px;}
	.st10{font-size:154.3202px;}
	.st11{font-size:154.1238px;}
	.st12{font-size:154.7861px;}
	.st13{font-size:154.1269px;}
	.st14{font-size:154.1381px;}
	.st15{font-size:154.139px;}
	.st16{font-size:154.1633px;}
</style>
<g id="Layer_2_00000096020295963153812670000000947561881872776635_">
	<g id="Layer_1-2">
		<text transform="matrix(0.1728 -0.9849 0.9849 0.1728 132.1245 651.4152)" class="st0 st1">C</text>
		<text transform="matrix(0.3818 -0.9243 0.9243 0.3818 152.1632 538.0894)" class="st0 st2">O</text>
		<text transform="matrix(0.5857 -0.8105 0.8105 0.5857 204.9798 414.764)" class="st0 st3">N</text>
		<text transform="matrix(0.7532 -0.6578 0.6578 0.7532 281.4208 311.101)" class="st0 st3">N</text>
		<text transform="matrix(0.8695 -0.494 0.494 0.8695 380.1821 228.1042)" class="st0 st3">E</text>
		<text transform="matrix(0.9475 -0.3199 0.3199 0.9475 467.4122 178.9045)" class="st0 st3">C</text>
		<text transform="matrix(0.9913 -0.1313 0.1313 0.9913 579.0205 143.3186)" class="st0 st3">T</text>
		<text transform="matrix(0.9816 0.191 -0.191 0.9816 729.5241 128.05)" class="st0 st4">W</text>
		<text transform="matrix(0.9253 0.3792 -0.3792 0.9253 894.2535 167.1963)" class="st0 st5">I</text>
		<text transform="matrix(0.8631 0.5051 -0.5051 0.8631 944.9786 187.218)" class="st0 st3">T</text>
		<text transform="matrix(0.7437 0.6685 -0.6685 0.7437 1033.209 238.785)" class="st0 st6">H</text>
		<text transform="matrix(0.4749 0.8801 -0.8801 0.4749 1164.0696 370.1451)" class="st0 st7">M</text>
		<text transform="matrix(0.2574 0.9663 -0.9663 0.2574 1231.9489 506.2173)" class="st0 st8">E</text>
		<text transform="matrix(2.775350e-02 0.9996 -0.9996 2.775350e-02 1262.6978 663.6573)" class="st0 st3">|</text>
		<text transform="matrix(-0.2229 0.9748 -0.9748 -0.2229 1260.9969 771.7587)" class="st0 st8">C</text>
		<text transform="matrix(-0.4232 0.9061 -0.9061 -0.4232 1235.5505 883.9406)" class="st0 st9">O</text>
		<text transform="matrix(-0.6255 0.7803 -0.7803 -0.6255 1176.8013 1004.5663)" class="st0 st10">N</text>
		<text transform="matrix(-0.7822 0.623 -0.623 -0.7822 1095.3588 1104.333)" class="st0 st11">N</text>
		<text transform="matrix(-0.8905 0.4551 -0.4551 -0.8905 992.7938 1182.6449)" class="st0 st9">E</text>
		<text transform="matrix(-0.9612 0.276 -0.276 -0.9612 903.3193 1227.5197)" class="st0 st12">C</text>
		<text transform="matrix(-0.9965 8.346106e-02 -8.346106e-02 -0.9965 790.1331 1257.6641)" class="st0 st13">T</text>
		<text transform="matrix(-0.9712 -0.2381 0.2381 -0.9712 639.0108 1265.7045)" class="st0 st14">W</text>
		<text transform="matrix(-0.9059 -0.4236 0.4236 -0.9059 476.3947 1218.673)" class="st0 st3">I</text>
		<text transform="matrix(-0.8376 -0.5463 0.5463 -0.8376 426.7235 1196.2341)" class="st0 st15">T</text>
		<text transform="matrix(-0.7094 -0.7048 0.7048 -0.7094 341.0961 1140.4088)" class="st0 st3">H</text>
		<text transform="matrix(-0.4278 -0.9038 0.9038 -0.4278 216.6512 1002.9493)" class="st0 st3">M</text>
		<text transform="matrix(-0.2174 -0.9761 0.9761 -0.2174 155.4644 863.7542)" class="st0 st16">E</text>
		<text transform="matrix(2.028947e-02 -0.9998 0.9998 2.028947e-02 132.3441 704.9803)" class="st0 st3">|</text>
	</g>
</g>
</svg>
